<?xml version="1.0" encoding="UTF-8" ?>
<svg version="1.1" width="64" height="64" xmlns="http://www.w3.org/2000/svg" shape-rendering="crispEdges">
<rect x="28" y="6" width="8" height="3" fill="#000000" />
<rect x="5" y="7" width="17" height="3" fill="#000000" />
<rect x="27" y="7" width="1" height="4" fill="#000000" />
<rect x="36" y="7" width="1" height="4" fill="#000000" />
<rect x="42" y="7" width="17" height="3" fill="#000000" />
<rect x="4" y="8" width="1" height="25" fill="#000000" />
<rect x="22" y="8" width="1" height="4" fill="#000000" />
<rect x="25" y="8" width="2" height="3" fill="#000000" />
<rect x="37" y="8" width="2" height="3" fill="#000000" />
<rect x="41" y="8" width="1" height="4" fill="#000000" />
<rect x="59" y="8" width="1" height="25" fill="#000000" />
<rect x="3" y="9" width="1" height="23" fill="#000000" />
<rect x="23" y="9" width="2" height="3" fill="#000000" />
<rect x="28" y="9" width="1" height="1" fill="#000000" />
<rect x="29" y="9" width="6" height="9" fill="#FFFFFF" />
<rect x="35" y="9" width="1" height="1" fill="#000000" />
<rect x="39" y="9" width="2" height="3" fill="#000000" />
<rect x="60" y="9" width="1" height="23" fill="#000000" />
<rect x="2" y="10" width="1" height="21" fill="#000000" />
<rect x="5" y="10" width="1" height="1" fill="#000000" />
<rect x="6" y="10" width="15" height="7" fill="#FFFFFF" />
<rect x="21" y="10" width="1" height="1" fill="#000000" />
<rect x="28" y="10" width="1" height="7" fill="#FFFFFF" />
<rect x="35" y="10" width="1" height="7" fill="#FFFFFF" />
<rect x="42" y="10" width="1" height="1" fill="#000000" />
<rect x="43" y="10" width="15" height="7" fill="#FFFFFF" />
<rect x="58" y="10" width="1" height="1" fill="#000000" />
<rect x="61" y="10" width="1" height="21" fill="#000000" />
<rect x="5" y="11" width="1" height="16" fill="#FFFFFF" />
<rect x="21" y="11" width="1" height="5" fill="#FFFFFF" />
<rect x="25" y="11" width="1" height="1" fill="#000000" />
<rect x="26" y="11" width="2" height="5" fill="#FFFFFF" />
<rect x="36" y="11" width="2" height="5" fill="#FFFFFF" />
<rect x="38" y="11" width="1" height="1" fill="#000000" />
<rect x="42" y="11" width="1" height="5" fill="#FFFFFF" />
<rect x="58" y="11" width="1" height="16" fill="#FFFFFF" />
<rect x="22" y="12" width="4" height="3" fill="#FFFFFF" />
<rect x="38" y="12" width="4" height="3" fill="#FFFFFF" />
<rect x="22" y="15" width="4" height="1" fill="#A9A9A9" />
<rect x="38" y="15" width="4" height="1" fill="#A9A9A9" />
<rect x="21" y="16" width="1" height="1" fill="#A9A9A9" />
<rect x="22" y="16" width="3" height="1" fill="#B6B6B6" />
<rect x="25" y="16" width="1" height="1" fill="#B5D2DC" />
<rect x="26" y="16" width="2" height="1" fill="#A9A9A9" />
<rect x="36" y="16" width="2" height="1" fill="#A9A9A9" />
<rect x="38" y="16" width="4" height="1" fill="#B6B6B6" />
<rect x="42" y="16" width="1" height="1" fill="#A9A9A9" />
<rect x="6" y="17" width="5" height="1" fill="#FFFFFF" />
<rect x="11" y="17" width="10" height="1" fill="#A9A9A9" />
<rect x="21" y="17" width="3" height="1" fill="#B6B6B6" />
<rect x="24" y="17" width="1" height="1" fill="#B5D2DC" />
<rect x="25" y="17" width="1" height="1" fill="#DEF1F2" />
<rect x="26" y="17" width="1" height="1" fill="#B5D2DC" />
<rect x="27" y="17" width="1" height="1" fill="#B6B6B6" />
<rect x="28" y="17" width="1" height="1" fill="#A9A9A9" />
<rect x="35" y="17" width="1" height="1" fill="#A9A9A9" />
<rect x="36" y="17" width="1" height="1" fill="#B5D2DC" />
<rect x="37" y="17" width="1" height="1" fill="#DEF1F2" />
<rect x="38" y="17" width="1" height="1" fill="#B5D2DC" />
<rect x="39" y="17" width="4" height="1" fill="#B6B6B6" />
<rect x="43" y="17" width="10" height="1" fill="#A9A9A9" />
<rect x="53" y="17" width="5" height="1" fill="#FFFFFF" />
<rect x="6" y="18" width="4" height="7" fill="#FFFFFF" />
<rect x="10" y="18" width="1" height="7" fill="#A9A9A9" />
<rect x="11" y="18" width="4" height="1" fill="#B6B6B6" />
<rect x="15" y="18" width="2" height="1" fill="#B5D2DC" />
<rect x="17" y="18" width="2" height="1" fill="#DEF1F2" />
<rect x="19" y="18" width="1" height="2" fill="#B5D2DC" />
<rect x="20" y="18" width="2" height="1" fill="#B6B6B6" />
<rect x="22" y="18" width="4" height="3" fill="#000000" />
<rect x="26" y="18" width="1" height="1" fill="#DEF1F2" />
<rect x="27" y="18" width="1" height="1" fill="#B5D2DC" />
<rect x="28" y="18" width="1" height="2" fill="#B6B6B6" />
<rect x="29" y="18" width="1" height="1" fill="#A9A9A9" />
<rect x="30" y="18" width="4" height="38" fill="#FFFFFF" />
<rect x="34" y="18" width="1" height="1" fill="#A9A9A9" />
<rect x="35" y="18" width="1" height="1" fill="#B6B6B6" />
<rect x="36" y="18" width="1" height="1" fill="#DEF1F2" />
<rect x="37" y="18" width="1" height="1" fill="#B5D2DC" />
<rect x="38" y="18" width="4" height="3" fill="#000000" />
<rect x="42" y="18" width="2" height="1" fill="#B6B6B6" />
<rect x="44" y="18" width="1" height="2" fill="#B5D2DC" />
<rect x="45" y="18" width="1" height="1" fill="#DEF1F2" />
<rect x="46" y="18" width="1" height="1" fill="#B5D2DC" />
<rect x="47" y="18" width="6" height="1" fill="#B6B6B6" />
<rect x="53" y="18" width="1" height="7" fill="#A9A9A9" />
<rect x="54" y="18" width="4" height="7" fill="#FFFFFF" />
<rect x="11" y="19" width="3" height="1" fill="#B6B6B6" />
<rect x="14" y="19" width="2" height="1" fill="#B5D2DC" />
<rect x="16" y="19" width="2" height="1" fill="#DEF1F2" />
<rect x="18" y="19" width="1" height="1" fill="#B5D2DC" />
<rect x="20" y="19" width="1" height="1" fill="#B5D2DC" />
<rect x="21" y="19" width="1" height="4" fill="#000000" />
<rect x="26" y="19" width="2" height="40" fill="#000000" />
<rect x="29" y="19" width="1" height="2" fill="#B6B6B6" />
<rect x="34" y="19" width="1" height="2" fill="#B6B6B6" />
<rect x="35" y="19" width="1" height="1" fill="#B5D2DC" />
<rect x="36" y="19" width="2" height="40" fill="#000000" />
<rect x="42" y="19" width="1" height="4" fill="#000000" />
<rect x="43" y="19" width="1" height="1" fill="#B5D2DC" />
<rect x="45" y="19" width="1" height="1" fill="#B5D2DC" />
<rect x="46" y="19" width="1" height="1" fill="#DEF1F2" />
<rect x="47" y="19" width="2" height="1" fill="#B5D2DC" />
<rect x="49" y="19" width="4" height="1" fill="#B6B6B6" />
<rect x="11" y="20" width="1" height="1" fill="#B6B6B6" />
<rect x="12" y="20" width="9" height="3" fill="#000000" />
<rect x="28" y="20" width="1" height="27" fill="#000000" />
<rect x="35" y="20" width="1" height="27" fill="#000000" />
<rect x="43" y="20" width="9" height="3" fill="#000000" />
<rect x="52" y="20" width="1" height="1" fill="#B6B6B6" />
<rect x="11" y="21" width="1" height="9" fill="#000000" />
<rect x="22" y="21" width="1" height="1" fill="#000000" />
<rect x="25" y="21" width="1" height="1" fill="#000000" />
<rect x="29" y="21" width="1" height="24" fill="#FFFFFF" />
<rect x="34" y="21" width="1" height="24" fill="#FFFFFF" />
<rect x="38" y="21" width="1" height="1" fill="#000000" />
<rect x="41" y="21" width="1" height="1" fill="#000000" />
<rect x="52" y="21" width="1" height="9" fill="#000000" />
<rect x="12" y="23" width="2" height="5" fill="#000000" />
<rect x="50" y="23" width="2" height="5" fill="#000000" />
<rect x="6" y="25" width="1" height="1" fill="#FFFFFF" />
<rect x="7" y="25" width="3" height="1" fill="#A9A9A9" />
<rect x="10" y="25" width="1" height="2" fill="#B6B6B6" />
<rect x="53" y="25" width="1" height="1" fill="#B6B6B6" />
<rect x="54" y="25" width="3" height="1" fill="#A9A9A9" />
<rect x="57" y="25" width="1" height="1" fill="#FFFFFF" />
<rect x="6" y="26" width="1" height="1" fill="#A9A9A9" />
<rect x="7" y="26" width="1" height="1" fill="#B6B6B6" />
<rect x="8" y="26" width="1" height="1" fill="#DEF1F2" />
<rect x="9" y="26" width="1" height="1" fill="#B5D2DC" />
<rect x="53" y="26" width="2" height="1" fill="#B5D2DC" />
<rect x="55" y="26" width="1" height="1" fill="#DEF1F2" />
<rect x="56" y="26" width="1" height="2" fill="#B6B6B6" />
<rect x="57" y="26" width="1" height="1" fill="#A9A9A9" />
<rect x="5" y="27" width="1" height="1" fill="#A9A9A9" />
<rect x="6" y="27" width="1" height="2" fill="#B6B6B6" />
<rect x="7" y="27" width="1" height="1" fill="#DEF1F2" />
<rect x="8" y="27" width="1" height="1" fill="#B5D2DC" />
<rect x="9" y="27" width="1" height="1" fill="#B6B6B6" />
<rect x="10" y="27" width="1" height="4" fill="#000000" />
<rect x="53" y="27" width="1" height="4" fill="#000000" />
<rect x="54" y="27" width="2" height="1" fill="#B5D2DC" />
<rect x="57" y="27" width="1" height="2" fill="#B6B6B6" />
<rect x="58" y="27" width="1" height="1" fill="#A9A9A9" />
<rect x="5" y="28" width="1" height="2" fill="#B6B6B6" />
<rect x="7" y="28" width="3" height="3" fill="#000000" />
<rect x="12" y="28" width="1" height="1" fill="#000000" />
<rect x="51" y="28" width="1" height="1" fill="#000000" />
<rect x="54" y="28" width="3" height="3" fill="#000000" />
<rect x="58" y="28" width="1" height="2" fill="#B6B6B6" />
<rect x="6" y="29" width="1" height="4" fill="#000000" />
<rect x="57" y="29" width="1" height="4" fill="#000000" />
<rect x="5" y="30" width="1" height="3" fill="#000000" />
<rect x="58" y="30" width="1" height="3" fill="#000000" />
<rect x="7" y="31" width="1" height="1" fill="#000000" />
<rect x="56" y="31" width="1" height="1" fill="#000000" />
<rect x="29" y="45" width="1" height="1" fill="#A9A9A9" />
<rect x="34" y="45" width="1" height="1" fill="#A9A9A9" />
<rect x="25" y="46" width="1" height="12" fill="#000000" />
<rect x="29" y="46" width="1" height="1" fill="#B6B6B6" />
<rect x="34" y="46" width="1" height="1" fill="#B6B6B6" />
<rect x="38" y="46" width="1" height="12" fill="#000000" />
<rect x="28" y="47" width="1" height="1" fill="#B6B6B6" />
<rect x="29" y="47" width="1" height="8" fill="#FFFFFF" />
<rect x="34" y="47" width="1" height="8" fill="#FFFFFF" />
<rect x="35" y="47" width="1" height="1" fill="#B6B6B6" />
<rect x="28" y="48" width="1" height="6" fill="#FFFFFF" />
<rect x="35" y="48" width="1" height="6" fill="#FFFFFF" />
<rect x="28" y="54" width="1" height="1" fill="#A9A9A9" />
<rect x="35" y="54" width="1" height="1" fill="#A9A9A9" />
<rect x="28" y="55" width="1" height="2" fill="#B5D2DC" />
<rect x="29" y="55" width="1" height="1" fill="#A9A9A9" />
<rect x="34" y="55" width="1" height="1" fill="#A9A9A9" />
<rect x="35" y="55" width="1" height="2" fill="#B6B6B6" />
<rect x="29" y="56" width="1" height="1" fill="#DEF1F2" />
<rect x="30" y="56" width="4" height="1" fill="#A9A9A9" />
<rect x="34" y="56" width="1" height="2" fill="#B6B6B6" />
<rect x="28" y="57" width="1" height="4" fill="#000000" />
<rect x="29" y="57" width="1" height="1" fill="#B5D2DC" />
<rect x="30" y="57" width="1" height="2" fill="#DEF1F2" />
<rect x="31" y="57" width="1" height="2" fill="#B5D2DC" />
<rect x="32" y="57" width="2" height="1" fill="#B6B6B6" />
<rect x="35" y="57" width="1" height="4" fill="#000000" />
<rect x="29" y="58" width="1" height="4" fill="#000000" />
<rect x="32" y="58" width="1" height="1" fill="#B5D2DC" />
<rect x="33" y="58" width="1" height="1" fill="#B6B6B6" />
<rect x="34" y="58" width="1" height="4" fill="#000000" />
<rect x="27" y="59" width="1" height="1" fill="#000000" />
<rect x="30" y="59" width="4" height="3" fill="#000000" />
<rect x="36" y="59" width="1" height="1" fill="#000000" />
</svg>