<?xml version="1.0" encoding="UTF-8" ?>
<svg version="1.1" width="96" height="97" xmlns="http://www.w3.org/2000/svg" shape-rendering="crispEdges">
<rect x="3" y="3" width="4" height="1" fill="#FFFFFF" />
<rect x="9" y="3" width="78" height="1" fill="#FFFFFF" />
<rect x="89" y="3" width="4" height="1" fill="#FFFFFF" />
<rect x="3" y="4" width="1" height="3" fill="#FFFFFF" />
<rect x="5" y="4" width="5" height="1" fill="#FFFFFF" />
<rect x="12" y="4" width="72" height="1" fill="#FFFFFF" />
<rect x="86" y="4" width="5" height="1" fill="#FFFFFF" />
<rect x="92" y="4" width="1" height="3" fill="#FFFFFF" />
<rect x="4" y="5" width="2" height="1" fill="#FFFFFF" />
<rect x="7" y="5" width="1" height="5" fill="#FFFFFF" />
<rect x="88" y="5" width="1" height="5" fill="#FFFFFF" />
<rect x="90" y="5" width="2" height="1" fill="#FFFFFF" />
<rect x="4" y="6" width="1" height="4" fill="#FFFFFF" />
<rect x="91" y="6" width="1" height="4" fill="#FFFFFF" />
<rect x="5" y="7" width="2" height="1" fill="#FFFFFF" />
<rect x="8" y="7" width="2" height="1" fill="#FFFFFF" />
<rect x="86" y="7" width="2" height="1" fill="#FFFFFF" />
<rect x="89" y="7" width="2" height="1" fill="#FFFFFF" />
<rect x="9" y="8" width="1" height="2" fill="#FFFFFF" />
<rect x="86" y="8" width="1" height="2" fill="#FFFFFF" />
<rect x="3" y="9" width="1" height="78" fill="#FFFFFF" />
<rect x="8" y="9" width="1" height="1" fill="#FFFFFF" />
<rect x="87" y="9" width="1" height="1" fill="#FFFFFF" />
<rect x="92" y="9" width="1" height="78" fill="#FFFFFF" />
<rect x="4" y="12" width="1" height="72" fill="#FFFFFF" />
<rect x="91" y="12" width="1" height="72" fill="#FFFFFF" />
<rect x="4" y="86" width="1" height="5" fill="#FFFFFF" />
<rect x="7" y="86" width="3" height="1" fill="#FFFFFF" />
<rect x="86" y="86" width="3" height="1" fill="#FFFFFF" />
<rect x="91" y="86" width="1" height="5" fill="#FFFFFF" />
<rect x="7" y="87" width="1" height="5" fill="#FFFFFF" />
<rect x="9" y="87" width="1" height="2" fill="#FFFFFF" />
<rect x="86" y="87" width="1" height="2" fill="#FFFFFF" />
<rect x="88" y="87" width="1" height="5" fill="#FFFFFF" />
<rect x="5" y="88" width="2" height="1" fill="#FFFFFF" />
<rect x="8" y="88" width="1" height="1" fill="#FFFFFF" />
<rect x="87" y="88" width="1" height="1" fill="#FFFFFF" />
<rect x="89" y="88" width="2" height="1" fill="#FFFFFF" />
<rect x="3" y="89" width="1" height="4" fill="#FFFFFF" />
<rect x="92" y="89" width="1" height="4" fill="#FFFFFF" />
<rect x="5" y="90" width="1" height="3" fill="#FFFFFF" />
<rect x="90" y="90" width="1" height="3" fill="#FFFFFF" />
<rect x="6" y="91" width="1" height="2" fill="#FFFFFF" />
<rect x="8" y="91" width="2" height="1" fill="#FFFFFF" />
<rect x="12" y="91" width="72" height="2" fill="#FFFFFF" />
<rect x="86" y="91" width="2" height="1" fill="#FFFFFF" />
<rect x="89" y="91" width="1" height="2" fill="#FFFFFF" />
<rect x="4" y="92" width="1" height="1" fill="#FFFFFF" />
<rect x="9" y="92" width="3" height="1" fill="#FFFFFF" />
<rect x="84" y="92" width="3" height="1" fill="#FFFFFF" />
<rect x="91" y="92" width="1" height="1" fill="#FFFFFF" />
</svg>